<svg width="89" height="94" viewBox="0 0 89 94" fill="none" xmlns="http://www.w3.org/2000/svg">
<path d="M0 33.0464C0 14.7954 14.6546 0 32.732 0H55.6444C73.7218 0 88.3764 14.7954 88.3764 33.0464V52.8743C88.3764 71.1254 73.7218 85.9207 55.6444 85.9207H32.732C14.6546 85.9207 0 71.1254 0 52.8743V33.0464Z" fill="url(#paint0_linear_131_2111)"/>
<path d="M42.6846 91.7377C43.8787 94.2173 46.4669 94.2173 47.661 91.7377L58.6558 79.1041C59.7128 76.9092 58.1295 74.3545 55.7121 74.3545H35.9375C33.5201 74.3545 31.9368 76.9092 32.9938 79.1041L42.6846 91.7377Z" fill="url(#paint1_linear_131_2111)"/>
<ellipse cx="21.5639" cy="68.2338" rx="1.06052" ry="1.07173" fill="url(#paint2_linear_131_2111)"/>
<defs>
<linearGradient id="paint0_linear_131_2111" x1="0" y1="0" x2="93.4434" y2="88.231" gradientUnits="userSpaceOnUse">
<stop stop-color="#FFC704"/>
<stop offset="1" stop-color="#FFE690"/>
</linearGradient>
<linearGradient id="paint1_linear_131_2111" x1="0" y1="0" x2="93.4434" y2="88.231" gradientUnits="userSpaceOnUse">
<stop stop-color="#FFC704"/>
<stop offset="1" stop-color="#FFE690"/>
</linearGradient>
<linearGradient id="paint2_linear_131_2111" x1="20.5034" y1="67.1621" x2="22.6468" y2="69.283" gradientUnits="userSpaceOnUse">
<stop stop-color="#FFC704"/>
<stop offset="1" stop-color="#FFE690"/>
</linearGradient>
</defs>
</svg>
