<svg width="81" height="91" viewBox="0 0 81 91" fill="none" xmlns="http://www.w3.org/2000/svg">
<mask id="path-1-inside-1_189_7028" fill="white">
<path fill-rule="evenodd" clip-rule="evenodd" d="M2.61584 13.1042C0 18.2381 0 24.9587 0 38.4V42.1211C0 55.5624 0 62.283 2.61584 67.4169C4.9168 71.9328 8.58834 75.6043 13.1042 77.9053C17.5767 80.1841 23.2534 80.4777 33.5287 80.5155L38.5285 89.1756C39.2983 90.5089 41.2228 90.5089 41.9926 89.1756L46.9925 80.5155C57.2677 80.4777 62.9444 80.1841 67.4169 77.9053C71.9328 75.6043 75.6043 71.9328 77.9053 67.4169C80.5211 62.283 80.5211 55.5624 80.5211 42.1212V38.4C80.5211 24.9587 80.5211 18.2381 77.9053 13.1042C75.6043 8.58834 71.9328 4.9168 67.4169 2.61584C62.283 0 55.5624 0 42.1212 0H38.4C24.9587 0 18.2381 0 13.1042 2.61584C8.58834 4.9168 4.9168 8.58834 2.61584 13.1042Z"/>
</mask>
<path fill-rule="evenodd" clip-rule="evenodd" d="M2.61584 13.1042C0 18.2381 0 24.9587 0 38.4V42.1211C0 55.5624 0 62.283 2.61584 67.4169C4.9168 71.9328 8.58834 75.6043 13.1042 77.9053C17.5767 80.1841 23.2534 80.4777 33.5287 80.5155L38.5285 89.1756C39.2983 90.5089 41.2228 90.5089 41.9926 89.1756L46.9925 80.5155C57.2677 80.4777 62.9444 80.1841 67.4169 77.9053C71.9328 75.6043 75.6043 71.9328 77.9053 67.4169C80.5211 62.283 80.5211 55.5624 80.5211 42.1212V38.4C80.5211 24.9587 80.5211 18.2381 77.9053 13.1042C75.6043 8.58834 71.9328 4.9168 67.4169 2.61584C62.283 0 55.5624 0 42.1212 0H38.4C24.9587 0 18.2381 0 13.1042 2.61584C8.58834 4.9168 4.9168 8.58834 2.61584 13.1042Z" fill="white"/>
<path d="M2.61584 13.1042L3.50685 13.5582L3.50685 13.5582L2.61584 13.1042ZM2.61584 67.4169L1.72484 67.8709L1.72484 67.8709L2.61584 67.4169ZM13.1042 77.9053L13.5582 77.0143L13.5582 77.0143L13.1042 77.9053ZM33.5287 80.5155L34.3947 80.0155L34.1072 79.5177L33.5323 79.5155L33.5287 80.5155ZM38.5285 89.1756L39.3946 88.6756L39.3946 88.6756L38.5285 89.1756ZM41.9926 89.1756L42.8587 89.6756L42.8587 89.6756L41.9926 89.1756ZM46.9925 80.5155L46.9888 79.5155L46.4139 79.5177L46.1265 80.0155L46.9925 80.5155ZM67.4169 77.9053L66.9629 77.0143L66.9629 77.0143L67.4169 77.9053ZM77.9053 67.4169L77.0143 66.9629L77.0143 66.9629L77.9053 67.4169ZM77.9053 13.1042L77.0143 13.5582L77.0143 13.5582L77.9053 13.1042ZM67.4169 2.61584L67.8709 1.72484L67.8709 1.72484L67.4169 2.61584ZM13.1042 2.61584L13.5582 3.50685L13.5582 3.50685L13.1042 2.61584ZM1 38.4C1 31.6629 1.00078 26.6702 1.32366 22.7183C1.64559 18.7781 2.28273 15.9607 3.50685 13.5582L1.72484 12.6502C0.333115 15.3816 -0.337665 18.4915 -0.669698 22.5554C-1.00078 26.6076 -1 31.6959 -1 38.4H1ZM1 42.1211V38.4H-1V42.1211H1ZM3.50685 66.9629C2.28273 64.5604 1.64559 61.7431 1.32366 57.8028C1.00078 53.851 1 48.8583 1 42.1211H-1C-1 48.8253 -1.00078 53.9135 -0.669698 57.9657C-0.337665 62.0296 0.333115 65.1395 1.72484 67.8709L3.50685 66.9629ZM13.5582 77.0143C9.23049 74.8092 5.71194 71.2906 3.50685 66.9629L1.72484 67.8709C4.12167 72.5749 7.94618 76.3995 12.6502 78.7963L13.5582 77.0143ZM33.5323 79.5155C23.1944 79.4775 17.778 79.1644 13.5582 77.0143L12.6502 78.7963C17.3754 81.2039 23.3124 81.4779 33.525 81.5155L33.5323 79.5155ZM39.3946 88.6756L34.3947 80.0155L32.6626 81.0155L37.6625 89.6756L39.3946 88.6756ZM41.1266 88.6756C40.7417 89.3422 39.7795 89.3422 39.3946 88.6756L37.6625 89.6756C38.8172 91.6756 41.704 91.6756 42.8587 89.6756L41.1266 88.6756ZM46.1265 80.0155L41.1266 88.6756L42.8587 89.6756L47.8585 81.0155L46.1265 80.0155ZM66.9629 77.0143C62.7431 79.1644 57.3267 79.4775 46.9888 79.5155L46.9962 81.5155C57.2087 81.4779 63.1457 81.2039 67.8709 78.7963L66.9629 77.0143ZM77.0143 66.9629C74.8092 71.2906 71.2906 74.8092 66.9629 77.0143L67.8709 78.7963C72.5749 76.3995 76.3995 72.5749 78.7963 67.8709L77.0143 66.9629ZM79.5211 42.1212C79.5211 48.8583 79.5203 53.851 79.1975 57.8029C78.8755 61.7431 78.2384 64.5604 77.0143 66.9629L78.7963 67.8709C80.188 65.1395 80.8588 62.0296 81.1908 57.9657C81.5219 53.9135 81.5211 48.8253 81.5211 42.1212H79.5211ZM79.5211 38.4V42.1212H81.5211V38.4H79.5211ZM77.0143 13.5582C78.2384 15.9607 78.8755 18.7781 79.1975 22.7183C79.5203 26.6702 79.5211 31.6629 79.5211 38.4H81.5211C81.5211 31.6959 81.5219 26.6076 81.1908 22.5554C80.8588 18.4915 80.188 15.3816 78.7963 12.6502L77.0143 13.5582ZM66.9629 3.50685C71.2906 5.71194 74.8092 9.23049 77.0143 13.5582L78.7963 12.6502C76.3995 7.94618 72.5749 4.12167 67.8709 1.72484L66.9629 3.50685ZM42.1212 1C48.8583 1 53.851 1.00078 57.8029 1.32366C61.7431 1.64559 64.5604 2.28273 66.9629 3.50685L67.8709 1.72484C65.1395 0.333115 62.0296 -0.337665 57.9657 -0.669698C53.9135 -1.00078 48.8253 -1 42.1212 -1V1ZM38.4 1H42.1212V-1H38.4V1ZM13.5582 3.50685C15.9607 2.28273 18.7781 1.64559 22.7183 1.32366C26.6702 1.00078 31.6629 1 38.4 1V-1C31.6959 -1 26.6076 -1.00078 22.5554 -0.669698C18.4915 -0.337665 15.3816 0.333115 12.6502 1.72484L13.5582 3.50685ZM3.50685 13.5582C5.71194 9.23049 9.23049 5.71194 13.5582 3.50685L12.6502 1.72484C7.94619 4.12167 4.12167 7.94619 1.72484 12.6502L3.50685 13.5582Z" fill="black" mask="url(#path-1-inside-1_189_7028)"/>
</svg>
