<svg width="58" height="46" viewBox="0 0 58 46" fill="none" xmlns="http://www.w3.org/2000/svg">
<rect x="1" y="1" width="56" height="44" rx="11" stroke="black" stroke-width="2"/>
<g clip-path="url(#clip0_89_3049)">
<path d="M27.6493 34.9881H29.8984C30.534 34.9881 30.9864 34.6174 31.133 34.0077L31.7687 31.3773C32.2454 31.2219 32.7099 31.0426 33.1133 30.8512L35.4724 32.2621C35.9982 32.585 36.5971 32.5371 37.0371 32.1066L38.614 30.5763C39.0541 30.1459 39.1152 29.5242 38.7607 29.01L37.3182 26.7265C37.5261 26.308 37.7095 25.8776 37.8439 25.4472L40.5575 24.8135C41.181 24.67 41.5478 24.2277 41.5478 23.606V21.4419C41.5478 20.8322 41.181 20.3898 40.5575 20.2463L37.8683 19.6126C37.7095 19.1224 37.5139 18.6801 37.3427 18.3094L38.7851 15.99C39.1152 15.4639 39.0908 14.902 38.6384 14.4596L37.0371 12.9173C36.5848 12.5108 36.0348 12.4151 35.5091 12.7379L33.1133 14.1846C32.7222 13.9813 32.2698 13.802 31.7687 13.6466L31.133 10.9804C30.9864 10.3706 30.534 10 29.8984 10H27.6493C27.0136 10 26.5613 10.3706 26.4024 10.9804L25.7668 13.6227C25.2901 13.7781 24.8256 13.9574 24.41 14.1726L22.0385 12.7379C21.5129 12.4151 20.9384 12.4869 20.4984 12.9173L18.9093 14.4596C18.457 14.902 18.4203 15.4639 18.7626 15.99L20.1928 18.3094C20.0339 18.6801 19.8383 19.1224 19.6794 19.6126L16.9901 20.2463C16.3667 20.3898 16 20.8322 16 21.4419V23.606C16 24.2277 16.3667 24.67 16.9901 24.8135L19.7038 25.4472C19.8383 25.8776 20.0216 26.308 20.2172 26.7265L18.787 29.01C18.4203 29.5242 18.4937 30.1459 18.9337 30.5763L20.4984 32.1066C20.9384 32.5371 21.5496 32.585 22.0752 32.2621L24.4222 30.8512C24.8378 31.0426 25.2901 31.2219 25.7668 31.3773L26.4024 34.0077C26.5613 34.6174 27.0136 34.9881 27.6493 34.9881ZM28.7739 26.7145C26.3902 26.7145 24.4589 24.8255 24.4589 22.4941C24.4589 20.1626 26.3902 18.2736 28.7739 18.2736C31.1575 18.2736 33.0888 20.1626 33.0888 22.4941C33.0888 24.8255 31.1575 26.7145 28.7739 26.7145Z" fill="black" fill-opacity="0.85"/>
</g>
<defs>
<clipPath id="clip0_89_3049">
<rect width="26" height="25" fill="white" transform="translate(16 10)"/>
</clipPath>
</defs>
</svg>
