<svg width="58" height="46" viewBox="0 0 58 46" fill="none" xmlns="http://www.w3.org/2000/svg">
<rect x="1.5" y="1.5" width="55" height="43" rx="10.5" fill="white" stroke="black" stroke-width="3"/>
<g clip-path="url(#clip0_205_2765)">
<rect width="25.4305" height="25" transform="translate(16 10)" fill="white"/>
<path d="M27.3941 34.9881H29.594C30.2157 34.9881 30.6581 34.6174 30.8015 34.0077L31.4233 31.3773C31.8895 31.2219 32.3439 31.0426 32.7385 30.8512L35.0459 32.2621C35.5601 32.585 36.1459 32.5371 36.5763 32.1066L38.1186 30.5763C38.5491 30.1459 38.6088 29.5242 38.2621 29.01L36.8512 26.7265C37.0546 26.308 37.2339 25.8776 37.3654 25.4472L40.0196 24.8135C40.6294 24.67 40.9881 24.2277 40.9881 23.606V21.4419C40.9881 20.8322 40.6294 20.3898 40.0196 20.2463L37.3893 19.6126C37.2339 19.1224 37.0426 18.6801 36.8752 18.3094L38.286 15.99C38.6088 15.4639 38.585 14.902 38.1425 14.4596L36.5763 12.9173C36.1339 12.5108 35.596 12.4151 35.0818 12.7379L32.7385 14.1846C32.3559 13.9813 31.9134 13.802 31.4233 13.6466L30.8015 10.9804C30.6581 10.3706 30.2157 10 29.594 10H27.3941C26.7724 10 26.33 10.3706 26.1746 10.9804L25.5529 13.6227C25.0866 13.7781 24.6322 13.9574 24.2257 14.1726L21.9063 12.7379C21.3922 12.4151 20.8302 12.4869 20.3998 12.9173L18.8455 14.4596C18.4032 14.902 18.3673 15.4639 18.7021 15.99L20.1009 18.3094C19.9455 18.6801 19.7542 19.1224 19.5988 19.6126L16.9684 20.2463C16.3587 20.3898 16 20.8322 16 21.4419V23.606C16 24.2277 16.3587 24.67 16.9684 24.8135L19.6227 25.4472C19.7542 25.8776 19.9335 26.308 20.1248 26.7265L18.726 29.01C18.3673 29.5242 18.439 30.1459 18.8694 30.5763L20.3998 32.1066C20.8302 32.5371 21.428 32.585 21.9421 32.2621L24.2377 30.8512C24.6442 31.0426 25.0866 31.2219 25.5529 31.3773L26.1746 34.0077C26.33 34.6174 26.7724 34.9881 27.3941 34.9881ZM28.4941 26.7145C26.1626 26.7145 24.2736 24.8255 24.2736 22.4941C24.2736 20.1626 26.1626 18.2736 28.4941 18.2736C30.8255 18.2736 32.7145 20.1626 32.7145 22.4941C32.7145 24.8255 30.8255 26.7145 28.4941 26.7145Z" fill="black" fill-opacity="0.85"/>
</g>
<defs>
<clipPath id="clip0_205_2765">
<rect width="25.4305" height="25" fill="white" transform="translate(16 10)"/>
</clipPath>
</defs>
</svg>
