<svg width="302" height="83" viewBox="0 0 302 83" fill="none" xmlns="http://www.w3.org/2000/svg">
<path d="M10.4444 40.8889L0.166667 15H5.44444L9.66667 25.6667C9.87037 26.1667 10.0648 26.6944 10.25 27.25C10.4537 27.787 10.6759 28.4444 10.9167 29.2222C11.1574 28.4444 11.3889 27.787 11.6111 27.25C11.8519 26.6944 12.0741 26.1667 12.2778 25.6667L17.0556 14.1667L21.8889 25.6667C22.0926 26.1667 22.3148 26.6944 22.5556 27.25C22.7963 27.787 23.037 28.4444 23.2778 29.2222C23.5185 28.4444 23.7407 27.787 23.9444 27.25C24.1481 26.6944 24.3426 26.1667 24.5278 25.6667L28.6944 15H33.7222L23.4444 40.8889L18.2778 28.5556C18.0741 28.0556 17.8611 27.5278 17.6389 26.9722C17.4167 26.4167 17.1852 25.75 16.9444 24.9722C16.7037 25.75 16.4722 26.4167 16.25 26.9722C16.0278 27.5093 15.8148 28.0278 15.6111 28.5278L10.4444 40.8889ZM44.2785 40.5556C42.4081 40.5556 40.76 40.1667 39.334 39.3889C37.9081 38.6111 36.797 37.5463 36.0007 36.1944C35.2044 34.8241 34.8063 33.2593 34.8063 31.5C34.8063 29.8148 35.1951 28.3241 35.9729 27.0278C36.7507 25.713 37.797 24.6759 39.1118 23.9167C40.4451 23.1574 41.9174 22.7778 43.5285 22.7778C45.1766 22.7778 46.6488 23.1574 47.9451 23.9167C49.2414 24.6574 50.26 25.6759 51.0007 26.9722C51.76 28.2685 52.1396 29.7407 52.1396 31.3889V33.0833H41.9729C41.51 33.0833 41.0655 33.0556 40.6396 33C40.2137 32.9444 39.7877 32.8796 39.3618 32.8056C39.584 33.9167 40.1303 34.8241 41.0007 35.5278C41.8896 36.213 43.0192 36.5556 44.3896 36.5556C45.4451 36.5556 46.3896 36.3426 47.2229 35.9167C48.0748 35.4907 48.7692 34.963 49.3063 34.3333L50.3618 38.6667C49.5285 39.2963 48.584 39.7685 47.5285 40.0833C46.4914 40.3981 45.4081 40.5556 44.2785 40.5556ZM39.2507 29.8889C40.1766 29.6852 41.084 29.5833 41.9729 29.5833H44.9174C45.4359 29.5833 45.9266 29.6019 46.3896 29.6389C46.8525 29.6759 47.2877 29.7407 47.6951 29.8333C47.4174 28.8333 46.9081 28.0463 46.1674 27.4722C45.4451 26.8981 44.547 26.6111 43.4729 26.6111C42.4544 26.6111 41.5655 26.9074 40.8063 27.5C40.0655 28.0741 39.547 28.8704 39.2507 29.8889ZM57.2748 40V13.3333H62.1082V40H57.2748ZM76.3797 40.5556C74.7315 40.5556 73.2223 40.1574 71.8519 39.3611C70.4815 38.5648 69.3889 37.4907 68.5741 36.1389C67.7778 34.787 67.3797 33.2963 67.3797 31.6667C67.3797 30.0185 67.7778 28.5278 68.5741 27.1944C69.3889 25.8426 70.4815 24.7685 71.8519 23.9722C73.2223 23.1759 74.7315 22.7778 76.3797 22.7778C77.5278 22.7778 78.6112 22.9722 79.6297 23.3611C80.6667 23.7315 81.5834 24.287 82.3797 25.0278L81.1297 29.9444C80.6667 29.1852 80.0464 28.5278 79.2686 27.9722C78.5093 27.3981 77.6112 27.1111 76.5741 27.1111C75.7038 27.1111 74.926 27.3148 74.2408 27.7222C73.5556 28.1296 73.0186 28.6759 72.6297 29.3611C72.2408 30.0463 72.0464 30.8148 72.0464 31.6667C72.0464 32.5 72.2408 33.2685 72.6297 33.9722C73.0186 34.6574 73.5556 35.2037 74.2408 35.6111C74.926 36.0185 75.7038 36.2222 76.5741 36.2222C77.6112 36.2222 78.5093 35.9444 79.2686 35.3889C80.0464 34.8148 80.6667 34.1481 81.1297 33.3889L82.3797 38.3056C81.5834 39.0463 80.6667 39.6111 79.6297 40C78.6112 40.3704 77.5278 40.5556 76.3797 40.5556ZM95.4594 40.5556C93.8112 40.5556 92.302 40.1574 90.9316 39.3611C89.5612 38.5648 88.4686 37.4907 87.6538 36.1389C86.8575 34.787 86.4594 33.2963 86.4594 31.6667C86.4594 30.0185 86.8575 28.5278 87.6538 27.1944C88.4686 25.8426 89.5612 24.7685 90.9316 23.9722C92.302 23.1759 93.8112 22.7778 95.4594 22.7778C97.126 22.7778 98.6353 23.1759 99.9872 23.9722C101.358 24.7685 102.441 25.8426 103.237 27.1944C104.052 28.5278 104.459 30.0185 104.459 31.6667C104.459 33.2963 104.052 34.787 103.237 36.1389C102.441 37.4907 101.358 38.5648 99.9872 39.3611C98.6353 40.1574 97.126 40.5556 95.4594 40.5556ZM95.4594 36.2222C96.2927 36.2222 97.0427 36.0185 97.7094 35.6111C98.3946 35.2037 98.9316 34.6574 99.3205 33.9722C99.7279 33.2685 99.9316 32.5 99.9316 31.6667C99.9316 30.8148 99.7279 30.0463 99.3205 29.3611C98.9316 28.6759 98.3946 28.1296 97.7094 27.7222C97.0427 27.3148 96.2927 27.1111 95.4594 27.1111C94.626 27.1111 93.8668 27.3148 93.1816 27.7222C92.5149 28.1296 91.9779 28.6759 91.5705 29.3611C91.1816 30.0463 90.9872 30.8148 90.9872 31.6667C90.9872 32.5 91.1816 33.2685 91.5705 33.9722C91.9779 34.6574 92.5149 35.2037 93.1816 35.6111C93.8668 36.0185 94.626 36.2222 95.4594 36.2222ZM109.693 40V23.3333H114.026V25.1667C114.619 24.3889 115.35 23.7963 116.22 23.3889C117.109 22.9815 118.035 22.7778 118.998 22.7778C119.98 22.7778 120.906 22.9815 121.776 23.3889C122.646 23.7963 123.378 24.3889 123.97 25.1667C124.619 24.3889 125.424 23.7963 126.387 23.3889C127.35 22.9815 128.396 22.7778 129.526 22.7778C130.711 22.7778 131.822 23.0556 132.859 23.6111C133.896 24.1481 134.739 24.9444 135.387 26C136.035 27.037 136.359 28.3056 136.359 29.8056V40H131.526V30.5C131.526 29.6111 131.267 28.8241 130.748 28.1389C130.23 27.4537 129.48 27.1111 128.498 27.1111C127.98 27.1111 127.48 27.2407 126.998 27.5C126.535 27.7407 126.156 28.1111 125.859 28.6111C125.582 29.0926 125.443 29.7037 125.443 30.4444V40H120.609V30.5C120.609 29.9074 120.489 29.3519 120.248 28.8333C120.026 28.3148 119.683 27.8981 119.22 27.5833C118.776 27.2685 118.23 27.1111 117.582 27.1111C117.063 27.1111 116.563 27.2407 116.082 27.5C115.619 27.7407 115.239 28.1111 114.943 28.6111C114.665 29.0926 114.526 29.7037 114.526 30.4444V40H109.693ZM150.732 40.5556C148.861 40.5556 147.213 40.1667 145.787 39.3889C144.361 38.6111 143.25 37.5463 142.454 36.1944C141.658 34.8241 141.259 33.2593 141.259 31.5C141.259 29.8148 141.648 28.3241 142.426 27.0278C143.204 25.713 144.25 24.6759 145.565 23.9167C146.898 23.1574 148.37 22.7778 149.982 22.7778C151.63 22.7778 153.102 23.1574 154.398 23.9167C155.695 24.6574 156.713 25.6759 157.454 26.9722C158.213 28.2685 158.593 29.7407 158.593 31.3889V33.0833H148.426C147.963 33.0833 147.519 33.0556 147.093 33C146.667 32.9444 146.241 32.8796 145.815 32.8056C146.037 33.9167 146.583 34.8241 147.454 35.5278C148.343 36.213 149.472 36.5556 150.843 36.5556C151.898 36.5556 152.843 36.3426 153.676 35.9167C154.528 35.4907 155.222 34.963 155.759 34.3333L156.815 38.6667C155.982 39.2963 155.037 39.7685 153.982 40.0833C152.945 40.3981 151.861 40.5556 150.732 40.5556ZM145.704 29.8889C146.63 29.6852 147.537 29.5833 148.426 29.5833H151.37C151.889 29.5833 152.38 29.6019 152.843 29.6389C153.306 29.6759 153.741 29.7407 154.148 29.8333C153.87 28.8333 153.361 28.0463 152.62 27.4722C151.898 26.8981 151 26.6111 149.926 26.6111C148.908 26.6111 148.019 26.9074 147.259 27.5C146.519 28.0741 146 28.8704 145.704 29.8889ZM176.337 40V27.1667H173.226V23.3333H176.42V17.7778H181.087V23.3333H184.393V27.1667H181.17V40H176.337ZM196.639 40.5556C194.991 40.5556 193.482 40.1574 192.111 39.3611C190.741 38.5648 189.648 37.4907 188.834 36.1389C188.037 34.787 187.639 33.2963 187.639 31.6667C187.639 30.0185 188.037 28.5278 188.834 27.1944C189.648 25.8426 190.741 24.7685 192.111 23.9722C193.482 23.1759 194.991 22.7778 196.639 22.7778C198.306 22.7778 199.815 23.1759 201.167 23.9722C202.537 24.7685 203.621 25.8426 204.417 27.1944C205.232 28.5278 205.639 30.0185 205.639 31.6667C205.639 33.2963 205.232 34.787 204.417 36.1389C203.621 37.4907 202.537 38.5648 201.167 39.3611C199.815 40.1574 198.306 40.5556 196.639 40.5556ZM196.639 36.2222C197.472 36.2222 198.222 36.0185 198.889 35.6111C199.574 35.2037 200.111 34.6574 200.5 33.9722C200.908 33.2685 201.111 32.5 201.111 31.6667C201.111 30.8148 200.908 30.0463 200.5 29.3611C200.111 28.6759 199.574 28.1296 198.889 27.7222C198.222 27.3148 197.472 27.1111 196.639 27.1111C195.806 27.1111 195.046 27.3148 194.361 27.7222C193.695 28.1296 193.158 28.6759 192.75 29.3611C192.361 30.0463 192.167 30.8148 192.167 31.6667C192.167 32.5 192.361 33.2685 192.75 33.9722C193.158 34.6574 193.695 35.2037 194.361 35.6111C195.046 36.0185 195.806 36.2222 196.639 36.2222ZM222.426 40V15H230.259C231.926 15 233.25 15.3241 234.232 15.9722C235.232 16.6019 235.945 17.3704 236.37 18.2778C236.796 19.1667 237.009 20.0185 237.009 20.8333C237.009 21.5556 236.87 22.2407 236.593 22.8889C236.315 23.5185 235.926 24.0741 235.426 24.5556C236.574 25.2778 237.5 26.2407 238.204 27.4444C238.908 28.6296 239.259 29.9537 239.259 31.4167C239.259 32.8426 238.908 34.213 238.204 35.5278C237.5 36.8426 236.454 37.9167 235.065 38.75C233.676 39.5833 231.963 40 229.926 40H222.426ZM227.259 35.5H229.426C230.537 35.5 231.426 35.287 232.093 34.8611C232.778 34.4167 233.269 33.8704 233.565 33.2222C233.88 32.5556 234.037 31.8981 234.037 31.25C234.037 30.6204 233.889 29.9815 233.593 29.3333C233.296 28.6667 232.806 28.1111 232.12 27.6667C231.454 27.2222 230.556 27 229.426 27H227.259V35.5ZM227.259 23.5H229.426C230.296 23.5 231 23.2963 231.537 22.8889C232.074 22.4815 232.343 21.8889 232.343 21.1111C232.343 20.2963 232.074 19.6852 231.537 19.2778C231.019 18.8704 230.352 18.6667 229.537 18.6667H227.259V23.5ZM244.869 40V13.3333H249.702V40H244.869ZM255.862 40V23.3333H260.696V40H255.862ZM258.279 20.9167C257.557 20.9167 256.946 20.6667 256.446 20.1667C255.946 19.6667 255.696 19.0556 255.696 18.3333C255.696 17.5926 255.946 16.9815 256.446 16.5C256.946 16 257.557 15.75 258.279 15.75C259.02 15.75 259.631 16 260.112 16.5C260.612 16.9815 260.862 17.5926 260.862 18.3333C260.862 19.0556 260.612 19.6667 260.112 20.1667C259.631 20.6667 259.02 20.9167 258.279 20.9167ZM266.801 48.3333V23.3333H270.967V24.9722C271.615 24.3241 272.375 23.8148 273.245 23.4444C274.134 23.0741 275.106 22.8889 276.162 22.8889C277.717 22.8889 279.125 23.287 280.384 24.0833C281.643 24.8611 282.643 25.9167 283.384 27.25C284.143 28.5833 284.523 30.0556 284.523 31.6667C284.523 33.2778 284.143 34.75 283.384 36.0833C282.643 37.3981 281.643 38.4537 280.384 39.25C279.125 40.0463 277.717 40.4444 276.162 40.4444C275.273 40.4444 274.449 40.3056 273.689 40.0278C272.93 39.7685 272.245 39.4074 271.634 38.9444V48.3333H266.801ZM275.606 36.1944C276.421 36.1944 277.162 35.9907 277.828 35.5833C278.495 35.1759 279.023 34.6296 279.412 33.9444C279.819 33.2593 280.023 32.5 280.023 31.6667C280.023 30.8333 279.819 30.0741 279.412 29.3889C279.023 28.7037 278.495 28.1574 277.828 27.75C277.162 27.3426 276.421 27.1389 275.606 27.1389C274.791 27.1389 274.051 27.3426 273.384 27.75C272.717 28.1574 272.18 28.7037 271.773 29.3889C271.384 30.0741 271.189 30.8333 271.189 31.6667C271.189 32.5 271.384 33.2593 271.773 33.9444C272.18 34.6296 272.717 35.1759 273.384 35.5833C274.051 35.9907 274.791 36.1944 275.606 36.1944ZM292.747 30.8333L291.747 15H297.414L296.414 30.8333H292.747ZM294.581 40.5556C293.766 40.5556 293.071 40.2778 292.497 39.7222C291.942 39.1481 291.664 38.4537 291.664 37.6389C291.664 36.8241 291.942 36.1389 292.497 35.5833C293.071 35.0093 293.766 34.7222 294.581 34.7222C295.396 34.7222 296.081 35.0093 296.636 35.5833C297.21 36.1389 297.497 36.8241 297.497 37.6389C297.497 38.4537 297.21 39.1481 296.636 39.7222C296.081 40.2778 295.396 40.5556 294.581 40.5556Z" fill="#4ADD85"/>
<path d="M4.44444 76.1667C3.7037 76.1667 3.03241 76.0185 2.43056 75.7222C1.83796 75.4259 1.36574 75.0648 1.01389 74.6389L1.47222 72.7222C1.73148 73.2407 2.12037 73.7083 2.63889 74.125C3.15741 74.5417 3.77778 74.75 4.5 74.75C5.15741 74.75 5.69907 74.5417 6.125 74.125C6.56019 73.7083 6.77778 73.1944 6.77778 72.5833C6.77778 72.1389 6.6713 71.7731 6.45833 71.4861C6.24537 71.1991 6.00463 70.9722 5.73611 70.8056C5.46759 70.6389 5.25463 70.5185 5.09722 70.4444L3.56944 69.6667C3.3287 69.537 3.02778 69.3565 2.66667 69.125C2.31481 68.8935 2.00463 68.5741 1.73611 68.1667C1.46759 67.7593 1.33333 67.2315 1.33333 66.5833C1.33333 65.9537 1.47685 65.3935 1.76389 64.9028C2.06019 64.412 2.46759 64.0278 2.98611 63.75C3.51389 63.4722 4.11574 63.3333 4.79167 63.3333C5.45833 63.3333 6.0463 63.4537 6.55556 63.6944C7.06481 63.9259 7.46296 64.1667 7.75 64.4167L7.29167 66.3333C7.06019 65.9444 6.71759 65.5787 6.26389 65.2361C5.81019 64.8935 5.2963 64.7222 4.72222 64.7222C4.16667 64.7222 3.72222 64.8889 3.38889 65.2222C3.05556 65.5463 2.88889 65.9491 2.88889 66.4306C2.88889 66.8009 2.97222 67.1065 3.13889 67.3472C3.31481 67.588 3.50926 67.7778 3.72222 67.9167C3.94444 68.0556 4.125 68.162 4.26389 68.2361L5.81944 69.0139C6.00463 69.1065 6.23611 69.2361 6.51389 69.4028C6.80093 69.5694 7.08333 69.7917 7.36111 70.0694C7.63889 70.338 7.87037 70.6713 8.05556 71.0694C8.24074 71.4583 8.33333 71.9306 8.33333 72.4861C8.33333 73.1991 8.16204 73.8333 7.81944 74.3889C7.48611 74.9444 7.02778 75.3796 6.44444 75.6944C5.86111 76.0093 5.19444 76.1667 4.44444 76.1667ZM12.6657 76V68.9167H10.7768V67.6667H12.7074V64.8889H14.124V67.6667H16.1935V68.9167H14.1657V76H12.6657ZM22.3028 76.1111C21.5435 76.1111 20.8491 75.9213 20.2194 75.5417C19.5898 75.1528 19.0852 74.6343 18.7056 73.9861C18.3352 73.338 18.15 72.6204 18.15 71.8333C18.15 71.0463 18.3352 70.3287 18.7056 69.6806C19.0852 69.0324 19.5898 68.5185 20.2194 68.1389C20.8491 67.75 21.5435 67.5556 22.3028 67.5556C22.8769 67.5556 23.4139 67.662 23.9139 67.875C24.4231 68.088 24.863 68.3843 25.2333 68.7639V67.6667H26.6222V76H25.2333V74.9028C24.863 75.2731 24.4231 75.5694 23.9139 75.7917C23.4139 76.0046 22.8769 76.1111 22.3028 76.1111ZM22.4972 74.75C23.025 74.75 23.5019 74.6204 23.9278 74.3611C24.363 74.0926 24.7056 73.7407 24.9556 73.3056C25.2148 72.8611 25.3444 72.3704 25.3444 71.8333C25.3444 71.2963 25.2148 70.8102 24.9556 70.375C24.7056 69.9306 24.363 69.5787 23.9278 69.3194C23.5019 69.0509 23.025 68.9167 22.4972 68.9167C21.9694 68.9167 21.488 69.0509 21.0528 69.3194C20.6269 69.5787 20.2843 69.9306 20.025 70.375C19.775 70.8102 19.65 71.2963 19.65 71.8333C19.65 72.3704 19.775 72.8611 20.025 73.3056C20.2843 73.7407 20.6269 74.0926 21.0528 74.3611C21.488 74.6204 21.9694 74.75 22.4972 74.75ZM30.133 80.1667L32.8413 74.7778L29.3135 67.6667H31.008L32.7858 71.2778C32.9432 71.6019 33.0959 71.9213 33.2441 72.2361C33.3922 72.5509 33.5404 72.9306 33.6885 73.375C33.8459 72.9306 33.9941 72.5509 34.133 72.2361C34.2811 71.912 34.4385 71.5926 34.6052 71.2778L36.4108 67.6667H38.008L31.758 80.1667H30.133ZM49.8971 76.1667C49.0823 76.1667 48.3416 75.9722 47.6749 75.5833C47.0082 75.1944 46.4758 74.6713 46.0777 74.0139C45.6795 73.3565 45.4805 72.6296 45.4805 71.8333C45.4805 71.037 45.6795 70.3102 46.0777 69.6528C46.4758 68.9954 47.0082 68.4722 47.6749 68.0833C48.3416 67.6944 49.0823 67.5 49.8971 67.5C50.499 67.5 51.0638 67.6065 51.5916 67.8194C52.1194 68.0324 52.5823 68.3148 52.9805 68.6667L52.5221 70.5556C52.2907 70.0926 51.9388 69.7037 51.4666 69.3889C51.0036 69.0741 50.4758 68.9167 49.8832 68.9167C49.3462 68.9167 48.8555 69.0509 48.411 69.3194C47.9758 69.5787 47.6286 69.9306 47.3694 70.375C47.1101 70.8102 46.9805 71.2963 46.9805 71.8333C46.9805 72.3611 47.1101 72.8472 47.3694 73.2917C47.6286 73.7361 47.9758 74.0926 48.411 74.3611C48.8555 74.6204 49.3462 74.75 49.8832 74.75C50.4758 74.75 51.0036 74.5972 51.4666 74.2917C51.9388 73.9861 52.2907 73.5926 52.5221 73.1111L52.9805 75C52.5823 75.3519 52.1194 75.6343 51.5916 75.8472C51.0638 76.0602 50.499 76.1667 49.8971 76.1667ZM56.0138 76V62.6667H57.5138V76H56.0138ZM65.1795 76.1667C64.374 76.1667 63.6378 75.9722 62.9712 75.5833C62.3045 75.1944 61.7721 74.6713 61.374 74.0139C60.9851 73.3565 60.7906 72.6296 60.7906 71.8333C60.7906 71.0278 60.9851 70.3009 61.374 69.6528C61.7721 68.9954 62.3045 68.4722 62.9712 68.0833C63.6378 67.6944 64.374 67.5 65.1795 67.5C65.9943 67.5 66.7304 67.6944 67.3878 68.0833C68.0545 68.4722 68.5823 68.9954 68.9712 69.6528C69.3693 70.3009 69.5684 71.0278 69.5684 71.8333C69.5684 72.6296 69.3693 73.3565 68.9712 74.0139C68.5823 74.6713 68.0545 75.1944 67.3878 75.5833C66.7304 75.9722 65.9943 76.1667 65.1795 76.1667ZM65.1795 74.75C65.7166 74.75 66.2027 74.6204 66.6378 74.3611C67.073 74.0926 67.4203 73.7407 67.6795 73.3056C67.9388 72.8611 68.0684 72.3704 68.0684 71.8333C68.0684 71.2963 67.9388 70.8102 67.6795 70.375C67.4203 69.9306 67.073 69.5787 66.6378 69.3194C66.2027 69.0509 65.7166 68.9167 65.1795 68.9167C64.6425 68.9167 64.1564 69.0509 63.7212 69.3194C63.286 69.5787 62.9388 69.9306 62.6795 70.375C62.4203 70.8102 62.2906 71.2963 62.2906 71.8333C62.2906 72.3704 62.4203 72.8611 62.6795 73.3056C62.9388 73.7407 63.286 74.0926 63.7212 74.3611C64.1564 74.6204 64.6425 74.75 65.1795 74.75ZM75.0002 76.1667C74.5742 76.1667 74.1159 76.088 73.6252 75.9306C73.1437 75.7639 72.727 75.4907 72.3752 75.1111L72.7918 73.4722C73.0511 73.9074 73.3844 74.2546 73.7918 74.5139C74.1992 74.7639 74.6344 74.8889 75.0974 74.8889C75.5418 74.8889 75.8752 74.7824 76.0974 74.5694C76.3196 74.3472 76.4307 74.0787 76.4307 73.7639C76.4307 73.4028 76.3104 73.1389 76.0696 72.9722C75.8381 72.8056 75.6298 72.6898 75.4446 72.625L74.3196 72.1944C74.1159 72.1111 73.8705 71.9907 73.5835 71.8333C73.2965 71.6667 73.0465 71.4306 72.8335 71.125C72.6205 70.8194 72.5141 70.4213 72.5141 69.9306C72.5141 69.4861 72.6205 69.0787 72.8335 68.7083C73.0465 68.338 73.3474 68.0463 73.7363 67.8333C74.1252 67.6111 74.5835 67.5 75.1113 67.5C75.5279 67.5 75.9631 67.5741 76.4168 67.7222C76.8705 67.8704 77.2548 68.1204 77.5696 68.4722L77.153 70.1111C76.9307 69.7037 76.6298 69.3796 76.2502 69.1389C75.8705 68.8981 75.477 68.7778 75.0696 68.7778C74.69 68.7778 74.3891 68.8843 74.1668 69.0972C73.9539 69.3102 73.8474 69.5556 73.8474 69.8333C73.8474 70.0556 73.9215 70.2546 74.0696 70.4306C74.2178 70.6065 74.44 70.75 74.7363 70.8611L75.8613 71.2917C76.065 71.3657 76.315 71.4861 76.6113 71.6528C76.9168 71.8194 77.1854 72.0602 77.4168 72.375C77.6483 72.6898 77.7641 73.1157 77.7641 73.6528C77.7641 74.4028 77.5002 75.0093 76.9724 75.4722C76.4539 75.9352 75.7965 76.1667 75.0002 76.1667ZM85.1095 76.1667C84.2391 76.1667 83.4567 75.9722 82.7622 75.5833C82.0771 75.1944 81.5354 74.6667 81.1372 74C80.7484 73.3241 80.5539 72.5741 80.5539 71.75C80.5539 70.963 80.7437 70.25 81.1234 69.6111C81.503 68.963 82.0122 68.4491 82.6511 68.0694C83.2993 67.6898 84.0122 67.5 84.79 67.5C85.5585 67.5 86.2622 67.6852 86.9011 68.0556C87.54 68.4167 88.0493 68.9074 88.4289 69.5278C88.8085 70.1481 88.9984 70.8519 88.9984 71.6389V72.25H83.5539C83.3132 72.25 83.0678 72.2407 82.8178 72.2222C82.5678 72.2037 82.3224 72.1759 82.0817 72.1389C82.1835 72.8796 82.5169 73.5 83.0817 74C83.6558 74.5 84.3363 74.75 85.1234 74.75C85.6511 74.75 86.1419 74.6296 86.5956 74.3889C87.0493 74.1481 87.415 73.8287 87.6928 73.4306L88.1095 75.1389C87.7113 75.463 87.253 75.7176 86.7345 75.9028C86.2252 76.0787 85.6835 76.1667 85.1095 76.1667ZM82.04 71.125C82.54 71.0417 83.0446 71 83.5539 71H86.3178C86.5215 71 86.7206 71.0093 86.915 71.0278C87.1187 71.037 87.3224 71.0509 87.5261 71.0694C87.3965 70.4213 87.0724 69.8889 86.5539 69.4722C86.0354 69.0463 85.4474 68.8333 84.79 68.8333C84.1141 68.8333 83.5215 69.0602 83.0122 69.5139C82.503 69.9583 82.1789 70.4954 82.04 71.125ZM92.7422 76.1667C92.4366 76.1667 92.1774 76.0648 91.9644 75.8611C91.7607 75.6481 91.6589 75.3889 91.6589 75.0833C91.6589 74.7778 91.7607 74.5231 91.9644 74.3194C92.1774 74.1065 92.4366 74 92.7422 74C93.057 74 93.3163 74.1065 93.52 74.3194C93.7237 74.5231 93.8255 74.7778 93.8255 75.0833C93.8255 75.3889 93.7237 75.6481 93.52 75.8611C93.3163 76.0648 93.057 76.1667 92.7422 76.1667ZM102.927 76V63.5H109.094V64.9167H104.511V67.5833H108.122V69H104.511V74.5833H109.094V76H102.927ZM115.092 76.4167L110.884 67.6667H112.592L114.287 71.2778C114.444 71.6019 114.592 71.9213 114.731 72.2361C114.87 72.5509 115.004 72.9352 115.134 73.3889C115.273 72.9352 115.412 72.5509 115.551 72.2361C115.699 71.912 115.847 71.5926 115.995 71.2778L117.703 67.6667H119.301L115.092 76.4167ZM125.563 76.1667C124.692 76.1667 123.91 75.9722 123.215 75.5833C122.53 75.1944 121.989 74.6667 121.59 74C121.201 73.3241 121.007 72.5741 121.007 71.75C121.007 70.963 121.197 70.25 121.576 69.6111C121.956 68.963 122.465 68.4491 123.104 68.0694C123.752 67.6898 124.465 67.5 125.243 67.5C126.012 67.5 126.715 67.6852 127.354 68.0556C127.993 68.4167 128.502 68.9074 128.882 69.5278C129.262 70.1481 129.451 70.8519 129.451 71.6389V72.25H124.007C123.766 72.25 123.521 72.2407 123.271 72.2222C123.021 72.2037 122.776 72.1759 122.535 72.1389C122.637 72.8796 122.97 73.5 123.535 74C124.109 74.5 124.789 74.75 125.576 74.75C126.104 74.75 126.595 74.6296 127.049 74.3889C127.502 74.1481 127.868 73.8287 128.146 73.4306L128.563 75.1389C128.164 75.463 127.706 75.7176 127.188 75.9028C126.678 76.0787 126.137 76.1667 125.563 76.1667ZM122.493 71.125C122.993 71.0417 123.498 71 124.007 71H126.771C126.975 71 127.174 71.0093 127.368 71.0278C127.572 71.037 127.776 71.0509 127.979 71.0694C127.85 70.4213 127.526 69.8889 127.007 69.4722C126.489 69.0463 125.901 68.8333 125.243 68.8333C124.567 68.8333 123.975 69.0602 123.465 69.5139C122.956 69.9583 122.632 70.4954 122.493 71.125ZM132.654 76V67.6667H134.043V69.0139C134.348 68.5231 134.742 68.1481 135.223 67.8889C135.714 67.6296 136.242 67.5 136.806 67.5C137.399 67.5 137.945 67.6481 138.445 67.9444C138.955 68.2315 139.367 68.6528 139.681 69.2083C139.996 69.7546 140.154 70.4213 140.154 71.2083V76H138.654V71.4167C138.654 70.7593 138.455 70.1806 138.056 69.6806C137.668 69.1713 137.117 68.9167 136.404 68.9167C135.82 68.9167 135.297 69.1296 134.834 69.5556C134.38 69.9722 134.154 70.5787 134.154 71.375V76H132.654ZM152.255 76.4167L148.047 67.6667H149.755L151.436 71.2778C151.593 71.6204 151.742 71.9537 151.88 72.2778C152.029 72.6019 152.172 73.0093 152.311 73.5C152.459 73.0185 152.607 72.6111 152.755 72.2778C152.913 71.9444 153.061 71.6111 153.2 71.2778L154.88 67.2778L156.547 71.2778C156.686 71.6204 156.83 71.9537 156.978 72.2778C157.126 72.6019 157.269 73.0093 157.408 73.5C157.547 73.0093 157.691 72.6019 157.839 72.2778C157.987 71.9444 158.14 71.6111 158.297 71.2778L160.005 67.6667H161.603L157.394 76.4167L155.7 72.6944C155.552 72.3611 155.404 72.0324 155.255 71.7083C155.117 71.375 154.973 70.9769 154.825 70.5139C154.686 70.9769 154.542 71.375 154.394 71.7083C154.246 72.0324 154.093 72.3611 153.936 72.6944L152.255 76.4167ZM164.301 76V67.6667H165.801V76H164.301ZM165.051 66.1667C164.773 66.1667 164.537 66.0694 164.342 65.875C164.148 65.6806 164.051 65.4444 164.051 65.1667C164.051 64.8796 164.148 64.6435 164.342 64.4583C164.537 64.2639 164.773 64.1667 165.051 64.1667C165.338 64.1667 165.574 64.2639 165.759 64.4583C165.953 64.6435 166.051 64.8796 166.051 65.1667C166.051 65.4444 165.953 65.6806 165.759 65.875C165.574 66.0694 165.338 66.1667 165.051 66.1667ZM170.633 76V68.9167H168.744V67.6667H170.675V64.8889H172.091V67.6667H174.161V68.9167H172.133V76H170.633ZM177.111 76V62.6667H178.611V68.8472C178.925 68.412 179.314 68.0787 179.777 67.8472C180.24 67.6157 180.736 67.5 181.263 67.5C181.856 67.5 182.402 67.6481 182.902 67.9444C183.412 68.2315 183.824 68.6528 184.138 69.2083C184.453 69.7546 184.611 70.4213 184.611 71.2083V76H183.111V71.4167C183.111 70.7593 182.912 70.1806 182.513 69.6806C182.125 69.1713 181.574 68.9167 180.861 68.9167C180.277 68.9167 179.754 69.1296 179.291 69.5556C178.838 69.9722 178.611 70.5787 178.611 71.375V76H177.111ZM192.116 76.1667C191.311 76.1667 190.575 75.9722 189.908 75.5833C189.241 75.1944 188.709 74.6713 188.311 74.0139C187.922 73.3565 187.727 72.6296 187.727 71.8333C187.727 71.0278 187.922 70.3009 188.311 69.6528C188.709 68.9954 189.241 68.4722 189.908 68.0833C190.575 67.6944 191.311 67.5 192.116 67.5C192.931 67.5 193.667 67.6944 194.325 68.0833C194.991 68.4722 195.519 68.9954 195.908 69.6528C196.306 70.3009 196.505 71.0278 196.505 71.8333C196.505 72.6296 196.306 73.3565 195.908 74.0139C195.519 74.6713 194.991 75.1944 194.325 75.5833C193.667 75.9722 192.931 76.1667 192.116 76.1667ZM192.116 74.75C192.653 74.75 193.139 74.6204 193.575 74.3611C194.01 74.0926 194.357 73.7407 194.616 73.3056C194.875 72.8611 195.005 72.3704 195.005 71.8333C195.005 71.2963 194.875 70.8102 194.616 70.375C194.357 69.9306 194.01 69.5787 193.575 69.3194C193.139 69.0509 192.653 68.9167 192.116 68.9167C191.579 68.9167 191.093 69.0509 190.658 69.3194C190.223 69.5787 189.875 69.9306 189.616 70.375C189.357 70.8102 189.227 71.2963 189.227 71.8333C189.227 72.3704 189.357 72.8611 189.616 73.3056C189.875 73.7407 190.223 74.0926 190.658 74.3611C191.093 74.6204 191.579 74.75 192.116 74.75ZM202.965 76.1667C202.381 76.1667 201.835 76.0231 201.326 75.7361C200.817 75.4398 200.404 75.0139 200.09 74.4583C199.775 73.9028 199.617 73.2361 199.617 72.4583V67.6667H201.117V72.25C201.117 72.9074 201.312 73.4907 201.701 74C202.099 74.5 202.654 74.75 203.367 74.75C203.951 74.75 204.469 74.5417 204.923 74.125C205.386 73.6991 205.617 73.088 205.617 72.2917V67.6667H207.117V76H205.729V74.6528C205.423 75.1435 205.025 75.5185 204.534 75.7778C204.053 76.037 203.529 76.1667 202.965 76.1667ZM211.956 76V68.9167H210.067V67.6667H211.998V64.8889H213.415V67.6667H215.484V68.9167H213.456V76H211.956ZM226.836 76.4167L222.628 67.6667H224.336L226.016 71.2778C226.174 71.6204 226.322 71.9537 226.461 72.2778C226.609 72.6019 226.753 73.0093 226.891 73.5C227.04 73.0185 227.188 72.6111 227.336 72.2778C227.493 71.9444 227.641 71.6111 227.78 71.2778L229.461 67.2778L231.128 71.2778C231.266 71.6204 231.41 71.9537 231.558 72.2778C231.706 72.6019 231.85 73.0093 231.989 73.5C232.128 73.0093 232.271 72.6019 232.419 72.2778C232.567 71.9444 232.72 71.6111 232.878 71.2778L234.586 67.6667H236.183L231.975 76.4167L230.28 72.6944C230.132 72.3611 229.984 72.0324 229.836 71.7083C229.697 71.375 229.554 70.9769 229.405 70.5139C229.266 70.9769 229.123 71.375 228.975 71.7083C228.827 72.0324 228.674 72.3611 228.516 72.6944L226.836 76.4167ZM242.276 76.1667C241.471 76.1667 240.735 75.9722 240.068 75.5833C239.401 75.1944 238.869 74.6713 238.471 74.0139C238.082 73.3565 237.887 72.6296 237.887 71.8333C237.887 71.0278 238.082 70.3009 238.471 69.6528C238.869 68.9954 239.401 68.4722 240.068 68.0833C240.735 67.6944 241.471 67.5 242.276 67.5C243.091 67.5 243.827 67.6944 244.485 68.0833C245.151 68.4722 245.679 68.9954 246.068 69.6528C246.466 70.3009 246.665 71.0278 246.665 71.8333C246.665 72.6296 246.466 73.3565 246.068 74.0139C245.679 74.6713 245.151 75.1944 244.485 75.5833C243.827 75.9722 243.091 76.1667 242.276 76.1667ZM242.276 74.75C242.813 74.75 243.3 74.6204 243.735 74.3611C244.17 74.0926 244.517 73.7407 244.776 73.3056C245.036 72.8611 245.165 72.3704 245.165 71.8333C245.165 71.2963 245.036 70.8102 244.776 70.375C244.517 69.9306 244.17 69.5787 243.735 69.3194C243.3 69.0509 242.813 68.9167 242.276 68.9167C241.739 68.9167 241.253 69.0509 240.818 69.3194C240.383 69.5787 240.036 69.9306 239.776 70.375C239.517 70.8102 239.387 71.2963 239.387 71.8333C239.387 72.3704 239.517 72.8611 239.776 73.3056C240.036 73.7407 240.383 74.0926 240.818 74.3611C241.253 74.6204 241.739 74.75 242.276 74.75ZM249.944 76V67.6667H251.333V69.1944C251.629 68.7037 252.023 68.3148 252.514 68.0278C253.004 67.7315 253.588 67.5833 254.264 67.5833L254.639 69.0833C254.463 69.0278 254.259 69 254.028 69C253.25 69 252.625 69.25 252.153 69.75C251.68 70.2407 251.444 70.9444 251.444 71.8611V76H249.944ZM260.69 76.1111C259.931 76.1111 259.237 75.9213 258.607 75.5417C257.977 75.1528 257.473 74.6343 257.093 73.9861C256.723 73.338 256.538 72.6204 256.538 71.8333C256.538 71.0463 256.723 70.3287 257.093 69.6806C257.473 69.0324 257.977 68.5185 258.607 68.1389C259.237 67.75 259.931 67.5556 260.69 67.5556C261.237 67.5556 261.75 67.6528 262.232 67.8472C262.713 68.0417 263.139 68.3102 263.51 68.6528V62.6667H265.01V76H263.621V74.9028C263.25 75.2731 262.811 75.5694 262.301 75.7917C261.801 76.0046 261.264 76.1111 260.69 76.1111ZM260.885 74.75C261.413 74.75 261.889 74.6204 262.315 74.3611C262.75 74.0926 263.093 73.7407 263.343 73.3056C263.602 72.8611 263.732 72.3704 263.732 71.8333C263.732 71.2963 263.602 70.8102 263.343 70.375C263.093 69.9306 262.75 69.5787 262.315 69.3194C261.889 69.0509 261.413 68.9167 260.885 68.9167C260.357 68.9167 259.875 69.0509 259.44 69.3194C259.014 69.5787 258.672 69.9306 258.413 70.375C258.163 70.8102 258.038 71.2963 258.038 71.8333C258.038 72.3704 258.163 72.8611 258.413 73.3056C258.672 73.7407 259.014 74.0926 259.44 74.3611C259.875 74.6204 260.357 74.75 260.885 74.75ZM271.02 76.1667C270.595 76.1667 270.136 76.088 269.645 75.9306C269.164 75.7639 268.747 75.4907 268.395 75.1111L268.812 73.4722C269.071 73.9074 269.405 74.2546 269.812 74.5139C270.22 74.7639 270.655 74.8889 271.118 74.8889C271.562 74.8889 271.895 74.7824 272.118 74.5694C272.34 74.3472 272.451 74.0787 272.451 73.7639C272.451 73.4028 272.331 73.1389 272.09 72.9722C271.858 72.8056 271.65 72.6898 271.465 72.625L270.34 72.1944C270.136 72.1111 269.891 71.9907 269.604 71.8333C269.317 71.6667 269.067 71.4306 268.854 71.125C268.641 70.8194 268.534 70.4213 268.534 69.9306C268.534 69.4861 268.641 69.0787 268.854 68.7083C269.067 68.338 269.368 68.0463 269.757 67.8333C270.145 67.6111 270.604 67.5 271.132 67.5C271.548 67.5 271.983 67.5741 272.437 67.7222C272.891 67.8704 273.275 68.1204 273.59 68.4722L273.173 70.1111C272.951 69.7037 272.65 69.3796 272.27 69.1389C271.891 68.8981 271.497 68.7778 271.09 68.7778C270.71 68.7778 270.409 68.8843 270.187 69.0972C269.974 69.3102 269.868 69.5556 269.868 69.8333C269.868 70.0556 269.942 70.2546 270.09 70.4306C270.238 70.6065 270.46 70.75 270.757 70.8611L271.882 71.2917C272.085 71.3657 272.335 71.4861 272.632 71.6528C272.937 71.8194 273.206 72.0602 273.437 72.375C273.669 72.6898 273.784 73.1157 273.784 73.6528C273.784 74.4028 273.52 75.0093 272.993 75.4722C272.474 75.9352 271.817 76.1667 271.02 76.1667ZM277.699 76.1667C277.394 76.1667 277.134 76.0648 276.921 75.8611C276.718 75.6481 276.616 75.3889 276.616 75.0833C276.616 74.7778 276.718 74.5231 276.921 74.3194C277.134 74.1065 277.394 74 277.699 74C278.014 74 278.273 74.1065 278.477 74.3194C278.681 74.5231 278.783 74.7778 278.783 75.0833C278.783 75.3889 278.681 75.6481 278.477 75.8611C278.273 76.0648 278.014 76.1667 277.699 76.1667Z" fill="white"/>
</svg>
