<svg width="81" height="91" viewBox="0 0 81 91" fill="none" xmlns="http://www.w3.org/2000/svg">
<path fill-rule="evenodd" clip-rule="evenodd" d="M2.61584 13.1042C0 18.2381 0 24.9587 0 38.4V42.1211C0 55.5624 0 62.283 2.61584 67.4169C4.9168 71.9328 8.58834 75.6043 13.1042 77.9053C17.5767 80.1841 23.2534 80.4777 33.5287 80.5155L38.5285 89.1756C39.2983 90.5089 41.2228 90.5089 41.9926 89.1756L46.9925 80.5155C57.2677 80.4777 62.9444 80.1841 67.4169 77.9053C71.9328 75.6043 75.6043 71.9328 77.9053 67.4169C80.5211 62.283 80.5211 55.5624 80.5211 42.1212V38.4C80.5211 24.9587 80.5211 18.2381 77.9053 13.1042C75.6043 8.58834 71.9328 4.9168 67.4169 2.61584C62.283 0 55.5624 0 42.1212 0H38.4C24.9587 0 18.2381 0 13.1042 2.61584C8.58834 4.9168 4.9168 8.58834 2.61584 13.1042Z" fill="url(#paint0_linear_189_6893)"/>
<defs>
<linearGradient id="paint0_linear_189_6893" x1="0" y1="0" x2="89.6005" y2="80.0076" gradientUnits="userSpaceOnUse">
<stop stop-color="#FB4F4B"/>
<stop offset="1" stop-color="#FC8383"/>
</linearGradient>
</defs>
</svg>
