<svg width="95" height="45" viewBox="0 0 95 45" fill="none" xmlns="http://www.w3.org/2000/svg">
<path d="M0.333334 34V2.75H10.125C12.2083 2.75 13.8634 3.15509 15.0903 3.96528C16.3403 4.75231 17.2315 5.71296 17.7639 6.84722C18.2963 7.95833 18.5625 9.02315 18.5625 10.0417C18.5625 10.9444 18.3889 11.8009 18.0417 12.6111C17.6944 13.3981 17.2083 14.0926 16.5833 14.6944C18.0185 15.5972 19.1759 16.8009 20.0556 18.3056C20.9352 19.787 21.375 21.4421 21.375 23.2708C21.375 25.0532 20.9352 26.7662 20.0556 28.4097C19.1759 30.0532 17.8681 31.3958 16.1319 32.4375C14.3958 33.4792 12.2546 34 9.70833 34H0.333334ZM6.375 28.375H9.08333C10.4722 28.375 11.5833 28.1088 12.4167 27.5764C13.2731 27.0208 13.8866 26.338 14.2569 25.5278C14.6505 24.6944 14.8472 23.8727 14.8472 23.0625C14.8472 22.2755 14.662 21.4769 14.2917 20.6667C13.9213 19.8333 13.3079 19.1389 12.4514 18.5833C11.6181 18.0278 10.4954 17.75 9.08333 17.75H6.375V28.375ZM6.375 13.375H9.08333C10.1713 13.375 11.0509 13.1204 11.7222 12.6111C12.3935 12.1019 12.7292 11.3611 12.7292 10.3889C12.7292 9.37037 12.3935 8.60648 11.7222 8.09722C11.0741 7.58796 10.2407 7.33333 9.22222 7.33333H6.375V13.375ZM28.3865 34V0.666666H34.4282V34H28.3865ZM42.1287 34V13.1667H48.1704V34H42.1287ZM45.1495 10.1458C44.2467 10.1458 43.4829 9.83333 42.8579 9.20833C42.2329 8.58333 41.9204 7.81944 41.9204 6.91667C41.9204 5.99074 42.2329 5.22685 42.8579 4.625C43.4829 4 44.2467 3.6875 45.1495 3.6875C46.0754 3.6875 46.8393 4 47.4412 4.625C48.0662 5.22685 48.3787 5.99074 48.3787 6.91667C48.3787 7.81944 48.0662 8.58333 47.4412 9.20833C46.8393 9.83333 46.0754 10.1458 45.1495 10.1458ZM55.8014 44.4167V13.1667H61.0098V15.2153C61.82 14.4051 62.769 13.7685 63.857 13.3056C64.9681 12.8426 66.1834 12.6111 67.5028 12.6111C69.4473 12.6111 71.2065 13.1088 72.7806 14.1042C74.3547 15.0764 75.6047 16.3958 76.5306 18.0625C77.4797 19.7292 77.9542 21.5694 77.9542 23.5833C77.9542 25.5972 77.4797 27.4375 76.5306 29.1042C75.6047 30.7477 74.3547 32.0671 72.7806 33.0625C71.2065 34.0579 69.4473 34.5556 67.5028 34.5556C66.3917 34.5556 65.3616 34.3819 64.4125 34.0347C63.4635 33.7106 62.607 33.2593 61.8431 32.6806V44.4167H55.8014ZM66.8084 29.2431C67.8269 29.2431 68.7528 28.9884 69.5862 28.4792C70.4195 27.9699 71.0792 27.287 71.5653 26.4306C72.0746 25.5741 72.3292 24.625 72.3292 23.5833C72.3292 22.5417 72.0746 21.5926 71.5653 20.7361C71.0792 19.8796 70.4195 19.1968 69.5862 18.6875C68.7528 18.1782 67.8269 17.9236 66.8084 17.9236C65.7899 17.9236 64.8639 18.1782 64.0306 18.6875C63.1973 19.1968 62.526 19.8796 62.0167 20.7361C61.5306 21.5926 61.2875 22.5417 61.2875 23.5833C61.2875 24.625 61.5306 25.5741 62.0167 26.4306C62.526 27.287 63.1973 27.9699 64.0306 28.4792C64.8639 28.9884 65.7899 29.2431 66.8084 29.2431ZM88.235 22.5417L86.985 2.75H94.0684L92.8184 22.5417H88.235ZM90.5267 34.6944C89.5082 34.6944 88.6401 34.3472 87.9225 33.6528C87.2281 32.9352 86.8809 32.0671 86.8809 31.0486C86.8809 30.0301 87.2281 29.1736 87.9225 28.4792C88.6401 27.7616 89.5082 27.4028 90.5267 27.4028C91.5452 27.4028 92.4017 27.7616 93.0961 28.4792C93.8137 29.1736 94.1725 30.0301 94.1725 31.0486C94.1725 32.0671 93.8137 32.9352 93.0961 33.6528C92.4017 34.3472 91.5452 34.6944 90.5267 34.6944Z" fill="#4ADD85"/>
</svg>
