<svg width="43" height="41" viewBox="0 0 43 41" fill="none" xmlns="http://www.w3.org/2000/svg">
<path d="M3.5402 20.49C3.5402 18.662 3.83004 16.8942 4.36833 15.2671L1.11796 13.9412C0.414058 16.0103 0 18.1999 0 20.49C0 22.7601 0.414058 24.9697 1.13866 27.0387L4.36833 25.7129C3.83004 24.0858 3.5402 22.318 3.5402 20.49ZM13.0636 5.26311L11.7386 2.16953C7.63939 4.15826 4.26481 7.43264 2.21521 11.4101L5.44487 12.7158C7.10111 9.52183 9.79249 6.91036 13.0636 5.26311ZM21.0963 3.41501C22.9802 3.41501 24.8021 3.69624 26.5205 4.23862L27.8455 1.10485C25.713 0.401764 23.4358 0 21.0963 0C18.7569 0 16.4588 0.401764 14.3264 1.10485L15.6928 4.23862C17.3905 3.69624 19.2123 3.41501 21.0963 3.41501ZM36.7891 12.6958L39.9981 11.4101C37.9277 7.43264 34.5531 4.15825 30.454 2.14944L29.129 5.26311C32.4001 6.89026 35.1122 9.50173 36.7891 12.6958ZM38.7145 20.49C38.7145 22.318 38.4247 24.0858 37.8864 25.7331L41.0954 27.0589C41.82 24.9897 42.2341 22.7601 42.2341 20.49C42.2341 18.1999 41.82 15.9902 41.0954 13.9211L37.8656 15.247C38.4247 16.8942 38.7145 18.662 38.7145 20.49ZM29.129 35.6968L30.454 38.8307C34.5739 36.8218 37.9485 33.5474 39.9773 29.5699L36.8099 28.2842C35.133 31.4782 32.4209 34.0696 29.129 35.6968ZM21.117 37.565C19.2123 37.565 17.3905 37.2838 15.6928 36.7413L14.3471 39.8752C16.4795 40.5783 18.7776 40.98 21.117 40.98C23.4565 40.98 25.7338 40.5783 27.8455 39.8952L26.4998 36.7615C24.8021 37.2838 23.0009 37.565 21.117 37.565ZM5.44487 28.2842L2.23592 29.5699C4.30621 33.5474 7.63939 36.8218 11.7386 38.8105L13.0636 35.6768C9.79249 34.0495 7.10111 31.4582 5.44487 28.2842Z" fill="url(#paint0_linear_205_2776)"/>
<path d="M21.0964 30.5539C25.4234 30.5539 28.3218 27.7617 28.3218 26.436C28.3218 25.974 27.8456 25.7528 27.4108 25.9538C25.8995 26.7371 24.0984 27.6412 21.0964 27.6412C18.0945 27.6412 16.2933 26.7371 14.8027 25.9538C14.3473 25.7528 13.8711 25.974 13.8711 26.436C13.8711 27.7617 16.7695 30.5539 21.0964 30.5539ZM14.9684 18.722C16.2726 18.722 17.432 17.577 17.432 15.9699C17.432 14.3428 16.2933 13.1978 14.9684 13.1978C13.6641 13.1978 12.5254 14.3428 12.5254 15.9699C12.5254 17.577 13.6641 18.722 14.9684 18.722ZM27.2453 18.722C28.5495 18.722 29.7089 17.577 29.7089 15.9699C29.7089 14.3428 28.5703 13.1978 27.2453 13.1978C25.9408 13.1978 24.8022 14.3428 24.8022 15.9699C24.8022 17.577 25.9408 18.722 27.2453 18.722Z" fill="url(#paint1_linear_205_2776)"/>
<defs>
<linearGradient id="paint0_linear_205_2776" x1="1.54987" y1="13.7227" x2="38.6504" y2="33.4318" gradientUnits="userSpaceOnUse">
<stop offset="0.215" stop-color="#7062EF"/>
<stop offset="0.60347" stop-color="#39B1BE"/>
<stop offset="0.835" stop-color="#4ADD85"/>
</linearGradient>
<linearGradient id="paint1_linear_205_2776" x1="13.156" y1="19.0097" x2="28.5115" y2="26.8462" gradientUnits="userSpaceOnUse">
<stop offset="0.215" stop-color="#7062EF"/>
<stop offset="0.60347" stop-color="#39B1BE"/>
<stop offset="0.835" stop-color="#4ADD85"/>
</linearGradient>
</defs>
</svg>
