<svg width="148" height="148" viewBox="0 0 148 148" fill="none" xmlns="http://www.w3.org/2000/svg">
<g filter="url(#filter0_ddddii_206_2872)">
<rect x="27" y="23" width="92.7399" height="92.7399" rx="18" fill="url(#paint0_linear_206_2872)"/>
</g>
<path d="M100.198 36.4268C99.8001 36.2919 99.439 36.2416 99.1144 36.2758C98.7976 36.3116 98.536 36.4193 98.3297 36.599C98.1248 36.7709 97.9917 37.0138 97.9302 37.3278L97.4092 37.1158C97.543 36.4327 97.7611 35.86 98.0636 35.3975C98.374 34.9366 98.7477 34.6103 99.1846 34.4187C99.6216 34.2271 100.099 34.182 100.617 34.2835L100.198 36.4268ZM96.2063 33.5175L98.5851 33.9834L97.3305 40.3897L94.9517 39.9238L96.2063 33.5175Z" fill="white"/>
<path d="M90.0217 36.2659C89.9984 36.585 90.0595 36.8462 90.2051 37.0493C90.3512 37.2445 90.5559 37.3517 90.8192 37.371C91.131 37.3858 91.3831 37.2839 91.5755 37.0654C91.776 36.8474 91.8899 36.5509 91.9173 36.1759L92.4679 36.2162C92.4153 36.9343 92.267 37.5371 92.0227 38.0246C91.7785 38.512 91.455 38.8774 91.0522 39.1207C90.6573 39.3645 90.1966 39.4672 89.67 39.4286C89.2152 39.3954 88.8199 39.2622 88.484 39.029C88.1561 38.7965 87.9098 38.4897 87.7452 38.1087C87.5812 37.7197 87.5175 37.2738 87.5543 36.7712L87.8564 32.6422L90.2739 32.8191L90.0217 36.2659ZM92.1529 32.9565L94.5704 33.1334L94.0941 39.644L91.6766 39.4671L92.1529 32.9565Z" fill="white"/>
<path d="M82.7485 32.6916C83.4748 32.6413 84.1189 32.7371 84.6809 32.9789C85.2424 33.2128 85.6882 33.5709 86.0182 34.0532C86.3557 34.5271 86.5479 35.1032 86.5949 35.7816C86.6412 36.452 86.5302 37.049 86.2617 37.5728C86.0011 38.096 85.6092 38.5161 85.0858 38.833C84.5619 39.1418 83.9368 39.3214 83.2105 39.3716C82.4762 39.4224 81.8284 39.3309 81.2669 39.0971C80.7049 38.8553 80.2549 38.4934 79.9168 38.0116C79.5867 37.5292 79.3985 36.9529 79.3522 36.2825C79.3052 35.6041 79.4123 35.0073 79.6734 34.492C79.9419 33.9683 80.3381 33.5519 80.8621 33.243C81.3854 32.9262 82.0143 32.7424 82.7485 32.6916ZM82.881 34.607C82.6415 34.6236 82.4342 34.698 82.2589 34.8305C82.0916 34.9623 81.9678 35.1433 81.8875 35.3734C81.8066 35.5955 81.7761 35.8502 81.796 36.1375C81.8164 36.4328 81.882 36.6849 81.9926 36.8937C82.1033 37.1026 82.2506 37.2608 82.4344 37.3684C82.6263 37.4754 82.8419 37.5206 83.0813 37.5041C83.3208 37.4875 83.5241 37.4133 83.6914 37.2815C83.8587 37.1496 83.9828 36.9726 84.0637 36.7505C84.1446 36.5284 84.1748 36.2697 84.1544 35.9744C84.1345 35.6871 84.0692 35.439 83.9585 35.2301C83.8473 35.0133 83.6998 34.8511 83.5159 34.7435C83.332 34.6359 83.1204 34.5904 82.881 34.607Z" fill="white"/>
<path d="M77.2564 40.5043C77.1364 41.183 76.8882 41.717 76.5117 42.106C76.1368 42.5029 75.6283 42.7683 74.9861 42.9022C74.5945 42.9839 74.2181 43.0011 73.8568 42.9538C73.505 42.9128 73.1472 42.8035 72.7833 42.626L73.4394 40.8344C73.772 41.0184 74.0831 41.0802 74.3729 41.0197C74.5374 40.9854 74.6671 40.9216 74.762 40.8283C74.8664 40.7411 74.9392 40.6197 74.9802 40.4641L75.0512 40.2164L71.1122 34.5532L73.5439 34.0461L75.7575 37.6665L76.1283 33.5072L78.4895 33.0148L77.2564 40.5043Z" fill="white"/>
<path d="M66.2157 38.4392C65.7229 38.4083 65.2854 38.4145 64.9032 38.4578C64.5251 38.4906 64.2186 38.5578 63.9837 38.6595C63.8515 38.7166 63.7525 38.79 63.6866 38.8795C63.6249 38.9585 63.6147 39.0457 63.656 39.1412C63.7036 39.2513 63.8168 39.3113 63.9954 39.3212C64.1782 39.3206 64.4013 39.3025 64.6649 39.2669C64.9357 39.2282 65.2208 39.192 65.5201 39.1585C65.8194 39.1249 66.1182 39.1307 66.4167 39.1759C66.7194 39.2106 66.9918 39.3063 67.2339 39.463C67.4834 39.6166 67.6828 39.8659 67.832 40.211C68.0099 40.6222 68.0486 41.0239 67.948 41.416C67.8548 41.805 67.6449 42.1661 67.3183 42.4991C66.999 42.829 66.5787 43.1067 66.0574 43.3322C65.5287 43.5609 64.9919 43.7103 64.447 43.7804C63.9062 43.84 63.3809 43.8145 62.871 43.7039L62.9488 42.0097C63.4281 42.09 63.8783 42.1132 64.2994 42.0792C64.7279 42.042 65.1073 41.952 65.4377 41.809C65.5405 41.7646 65.6238 41.7154 65.6877 41.6617C65.7516 41.6079 65.794 41.5547 65.8148 41.5021C65.8398 41.439 65.8396 41.378 65.8142 41.3193C65.7666 41.2092 65.6534 41.1491 65.4748 41.1392C65.2962 41.1293 65.0767 41.1459 64.8163 41.1888C64.5633 41.2285 64.2872 41.2651 63.9879 41.2987C63.6855 41.325 63.3866 41.3191 63.0913 41.2813C62.8033 41.2402 62.5383 41.1413 62.2961 40.9846C62.054 40.8278 61.8599 40.5806 61.7138 40.2428C61.5295 39.817 61.4804 39.4112 61.5662 39.0253C61.6595 38.6364 61.862 38.2785 62.174 37.9518C62.4859 37.6251 62.8952 37.3522 63.4018 37.133C63.857 36.9361 64.3356 36.8032 64.8375 36.7342C65.3362 36.6579 65.8398 36.6536 66.3485 36.7212L66.2157 38.4392Z" fill="white"/>
<path d="M58.6155 39.348C58.1839 39.6094 57.8093 39.6989 57.4915 39.6165C57.1808 39.5303 56.951 39.35 56.8022 39.0758C56.642 38.7804 56.6072 38.4899 56.6978 38.204C56.7885 37.9182 56.978 37.6971 57.2663 37.5407C57.5265 37.3995 57.8008 37.3599 58.0892 37.4218C58.3739 37.4767 58.6039 37.6659 58.7794 37.9894C58.8595 38.137 58.9077 38.2929 58.924 38.457C58.9434 38.6103 58.9485 38.7623 58.9392 38.9129L58.8065 40.8827L57.8045 41.4263L57.4983 38.6981L58.6155 39.348Z" fill="white"/>
<path d="M57.2966 44.9916C57.4103 45.1657 57.5358 45.2701 57.673 45.3047C57.817 45.3349 57.9593 45.3041 58.1 45.2123C58.1803 45.1598 58.2654 45.0852 58.3551 44.9884C58.4404 44.8849 58.528 44.7704 58.618 44.6448L59.8916 45.8052C59.774 46.0349 59.5998 46.2728 59.3689 46.5191C59.1403 46.7544 58.8853 46.9638 58.604 47.1475C58.2155 47.4012 57.8279 47.5539 57.4413 47.6057C57.0615 47.6531 56.7003 47.5975 56.3579 47.4389C56.0178 47.2693 55.7253 46.9969 55.4804 46.6217L52.2198 41.628L54.2394 40.3093L57.2966 44.9916ZM52.4568 43.6372L56.5764 40.9474L57.4227 42.2436L53.3031 44.9334L52.4568 43.6372Z" fill="white"/>
<path d="M51.2231 48.9454C51.0384 49.0987 50.9299 49.2562 50.8978 49.418C50.8668 49.5685 50.9177 49.7237 51.0505 49.8838C51.1782 50.0378 51.3296 50.12 51.5047 50.1307C51.6747 50.1351 51.849 50.0633 52.0276 49.9152C52.1569 49.8079 52.2591 49.6867 52.3341 49.5517C52.4092 49.4166 52.4592 49.2764 52.4841 49.131C52.5039 48.9795 52.4919 48.8335 52.4482 48.6931L53.2307 49.1665C53.3885 49.6073 53.4019 50.0431 53.2709 50.4741C53.1347 50.8989 52.8512 51.29 52.4202 51.6476C52.0631 51.9439 51.7047 52.1321 51.345 52.2122C50.9802 52.2862 50.633 52.2624 50.3034 52.1408C49.9688 52.013 49.6712 51.7922 49.4107 51.4781C49.0071 50.9917 48.8643 50.4813 48.9823 49.9469C49.0951 49.4063 49.463 48.8724 50.0859 48.3453L51.4804 47.1883L52.239 48.1026L51.2231 48.9454ZM51.2989 47.3078C51.1252 47.0984 50.9159 46.9966 50.6711 47.0022C50.4263 47.0078 50.1623 47.1281 49.8791 47.363C49.6759 47.5316 49.4675 47.7565 49.2538 48.0377C49.0401 48.3189 48.8433 48.6329 48.6633 48.9798L47.1748 48.1253C47.3599 47.7847 47.5547 47.4619 47.7592 47.1571C47.9637 46.8523 48.183 46.5716 48.4171 46.3151C48.6574 46.0534 48.9068 45.8152 49.1654 45.6007C49.8734 45.0133 50.5573 44.7162 51.217 44.7094C51.8828 44.6976 52.4583 44.9841 52.9436 45.569L55.6483 48.8291L53.8197 50.3462L51.2989 47.3078Z" fill="white"/>
<path d="M46.3091 52.4228C46.0675 52.201 45.8194 52.0927 45.5648 52.0979C45.3098 52.0919 45.0876 52.192 44.8982 52.3982C44.6823 52.6453 44.5949 52.918 44.636 53.2163C44.677 53.5146 44.8361 53.7909 45.1131 54.0452L44.7398 54.4518C44.2152 53.9704 43.8347 53.4799 43.5982 52.9804C43.3671 52.4751 43.2868 51.9887 43.3574 51.5214C43.428 51.0541 43.6473 50.6201 44.0151 50.2193C44.3343 49.8716 44.6866 49.6357 45.072 49.5117C45.4573 49.3876 45.8534 49.382 46.2603 49.4948C46.6725 49.6017 47.0643 49.8256 47.4356 50.1664L50.4854 52.966L48.8462 54.7518L46.3091 52.4228ZM39.2924 51.9926L40.9316 50.2069L47.4911 56.2281L45.8519 58.0138L39.2924 51.9926Z" fill="white"/>
<path d="M31.8974 63.6001L33.3192 61.3471L40.0718 63.5084L39.79 63.9549L34.9266 58.7999L36.2266 56.7398L42.9792 58.901L42.6975 59.3476L37.8277 54.2028L39.1917 52.0412L44.7879 58.9356L43.4174 61.1073L37.0851 59.112L37.3797 58.6452L41.8804 63.5429L40.5163 65.7045L31.8974 63.6001Z" fill="white"/>
<path d="M56.9816 95.1349H59.6576L61.9136 99.8029L64.1576 95.1349H66.8336V103.547H64.6376V98.5549L62.7176 102.719H61.0976L59.1776 98.5549V103.547H56.9816V95.1349ZM74.159 94.9789C74.823 94.9789 75.431 95.0869 75.983 95.3029C76.543 95.5189 77.027 95.8229 77.435 96.2149C77.851 96.6069 78.171 97.0669 78.395 97.5949C78.627 98.1229 78.743 98.6989 78.743 99.3229C78.743 99.9469 78.627 100.531 78.395 101.075C78.171 101.611 77.851 102.075 77.435 102.467C77.027 102.859 76.543 103.167 75.983 103.391C75.431 103.607 74.823 103.715 74.159 103.715C73.495 103.715 72.883 103.607 72.323 103.391C71.771 103.167 71.287 102.859 70.871 102.467C70.463 102.075 70.143 101.611 69.911 101.075C69.687 100.539 69.575 99.9549 69.575 99.3229C69.575 98.6909 69.687 98.1109 69.911 97.5829C70.143 97.0549 70.463 96.5989 70.871 96.2149C71.287 95.8229 71.771 95.5189 72.323 95.3029C72.883 95.0869 73.495 94.9789 74.159 94.9789ZM74.195 97.0549C73.915 97.0549 73.647 97.1109 73.391 97.2229C73.143 97.3349 72.923 97.4949 72.731 97.7029C72.547 97.9109 72.399 98.1549 72.287 98.4349C72.183 98.7069 72.131 99.0069 72.131 99.3349C72.131 99.6629 72.187 99.9669 72.299 100.247C72.411 100.527 72.559 100.771 72.743 100.979C72.935 101.187 73.155 101.351 73.403 101.471C73.651 101.583 73.915 101.639 74.195 101.639C74.467 101.639 74.723 101.583 74.963 101.471C75.203 101.351 75.415 101.187 75.599 100.979C75.783 100.771 75.927 100.527 76.031 100.247C76.135 99.9669 76.187 99.6629 76.187 99.3349C76.187 99.0069 76.135 98.7069 76.031 98.4349C75.927 98.1549 75.783 97.9109 75.599 97.7029C75.415 97.4949 75.203 97.3349 74.963 97.2229C74.723 97.1109 74.467 97.0549 74.195 97.0549ZM85.5098 94.9789C86.1738 94.9789 86.7818 95.0869 87.3338 95.3029C87.8938 95.5189 88.3778 95.8229 88.7858 96.2149C89.2018 96.6069 89.5218 97.0669 89.7458 97.5949C89.9778 98.1229 90.0938 98.6989 90.0938 99.3229C90.0938 99.9469 89.9778 100.531 89.7458 101.075C89.5218 101.611 89.2018 102.075 88.7858 102.467C88.3778 102.859 87.8938 103.167 87.3338 103.391C86.7818 103.607 86.1738 103.715 85.5098 103.715C84.8458 103.715 84.2338 103.607 83.6738 103.391C83.1218 103.167 82.6378 102.859 82.2218 102.467C81.8138 102.075 81.4938 101.611 81.2618 101.075C81.0378 100.539 80.9258 99.9549 80.9258 99.3229C80.9258 98.6909 81.0378 98.1109 81.2618 97.5829C81.4938 97.0549 81.8138 96.5989 82.2218 96.2149C82.6378 95.8229 83.1218 95.5189 83.6738 95.3029C84.2338 95.0869 84.8458 94.9789 85.5098 94.9789ZM85.5458 97.0549C85.2658 97.0549 84.9978 97.1109 84.7418 97.2229C84.4938 97.3349 84.2738 97.4949 84.0818 97.7029C83.8978 97.9109 83.7498 98.1549 83.6378 98.4349C83.5338 98.7069 83.4818 99.0069 83.4818 99.3349C83.4818 99.6629 83.5378 99.9669 83.6498 100.247C83.7618 100.527 83.9098 100.771 84.0938 100.979C84.2858 101.187 84.5058 101.351 84.7538 101.471C85.0018 101.583 85.2658 101.639 85.5458 101.639C85.8178 101.639 86.0738 101.583 86.3138 101.471C86.5538 101.351 86.7658 101.187 86.9498 100.979C87.1338 100.771 87.2778 100.527 87.3818 100.247C87.4858 99.9669 87.5378 99.6629 87.5378 99.3349C87.5378 99.0069 87.4858 98.7069 87.3818 98.4349C87.2778 98.1549 87.1338 97.9109 86.9498 97.7029C86.7658 97.4949 86.5538 97.3349 86.3138 97.2229C86.0738 97.1109 85.8178 97.0549 85.5458 97.0549ZM96.5109 95.1349C97.1989 95.1349 97.8189 95.2349 98.3709 95.4349C98.9229 95.6349 99.3949 95.9189 99.7869 96.2869C100.187 96.6549 100.495 97.0989 100.711 97.6189C100.927 98.1309 101.035 98.7029 101.035 99.3349C101.035 99.9669 100.927 100.543 100.711 101.063C100.495 101.575 100.183 102.019 99.7749 102.395C99.3669 102.763 98.8789 103.047 98.3109 103.247C97.7509 103.447 97.1229 103.547 96.4269 103.547H92.8269V95.1349H96.5109ZM96.5829 101.591C96.8709 101.591 97.1269 101.539 97.3509 101.435C97.5829 101.323 97.7829 101.171 97.9509 100.979C98.1269 100.779 98.2589 100.543 98.3469 100.271C98.4429 99.9989 98.4909 99.6949 98.4909 99.3589C98.4909 99.0229 98.4429 98.7189 98.3469 98.4469C98.2509 98.1669 98.1109 97.9269 97.9269 97.7269C97.7509 97.5189 97.5389 97.3629 97.2909 97.2589C97.0429 97.1549 96.7669 97.1029 96.4629 97.1029H95.3229V101.591H96.5829ZM103.311 97.9789C103.319 97.0589 103.575 96.3429 104.079 95.8309C104.583 95.3189 105.283 95.0629 106.179 95.0629C106.739 95.0629 107.219 95.1469 107.619 95.3149C108.019 95.4829 108.327 95.7269 108.543 96.0469C108.759 96.3589 108.867 96.7429 108.867 97.1989C108.867 97.4949 108.819 97.7549 108.723 97.9789C108.627 98.2029 108.499 98.4029 108.339 98.5789C108.179 98.7549 108.011 98.9189 107.835 99.0709C107.667 99.2149 107.503 99.3629 107.343 99.5149C107.183 99.6669 107.055 99.8309 106.959 100.007C106.863 100.183 106.815 100.383 106.815 100.607H105.015C105.015 100.303 105.051 100.043 105.123 99.8269C105.203 99.6029 105.303 99.4109 105.423 99.2509C105.543 99.0829 105.671 98.9349 105.807 98.8069C105.943 98.6789 106.071 98.5549 106.191 98.4349C106.311 98.3149 106.407 98.1869 106.479 98.0509C106.559 97.9149 106.599 97.7629 106.599 97.5949C106.599 97.3789 106.547 97.2229 106.443 97.1269C106.339 97.0229 106.175 96.9709 105.951 96.9709C105.695 96.9709 105.503 97.0549 105.375 97.2229C105.247 97.3829 105.179 97.6349 105.171 97.9789H103.311ZM105.867 101.387C106.203 101.387 106.475 101.491 106.683 101.699C106.899 101.907 107.007 102.175 107.007 102.503C107.007 102.847 106.899 103.123 106.683 103.331C106.475 103.539 106.203 103.643 105.867 103.643C105.539 103.643 105.267 103.539 105.051 103.331C104.843 103.123 104.739 102.847 104.739 102.503C104.739 102.175 104.843 101.907 105.051 101.699C105.267 101.491 105.539 101.387 105.867 101.387Z" fill="white"/>
<defs>
<filter id="filter0_ddddii_206_2872" x="0.8625" y="0.467672" width="146.817" height="146.817" filterUnits="userSpaceOnUse" color-interpolation-filters="sRGB">
<feFlood flood-opacity="0" result="BackgroundImageFix"/>
<feColorMatrix in="SourceAlpha" type="matrix" values="0 0 0 0 0 0 0 0 0 0 0 0 0 0 0 0 0 0 127 0" result="hardAlpha"/>
<feOffset dx="0.901293" dy="4.50647"/>
<feGaussianBlur stdDeviation="13.5194"/>
<feColorMatrix type="matrix" values="0 0 0 0 0.709804 0 0 0 0 0.717647 0 0 0 0 0.764706 0 0 0 0.25 0"/>
<feBlend mode="normal" in2="BackgroundImageFix" result="effect1_dropShadow_206_2872"/>
<feColorMatrix in="SourceAlpha" type="matrix" values="0 0 0 0 0 0 0 0 0 0 0 0 0 0 0 0 0 0 127 0" result="hardAlpha"/>
<feOffset dx="-0.901293" dy="-0.901293"/>
<feGaussianBlur stdDeviation="0.901293"/>
<feColorMatrix type="matrix" values="0 0 0 0 1 0 0 0 0 1 0 0 0 0 1 0 0 0 0.9 0"/>
<feBlend mode="normal" in2="effect1_dropShadow_206_2872" result="effect2_dropShadow_206_2872"/>
<feColorMatrix in="SourceAlpha" type="matrix" values="0 0 0 0 0 0 0 0 0 0 0 0 0 0 0 0 0 0 127 0" result="hardAlpha"/>
<feOffset dx="0.901293" dy="-0.901293"/>
<feGaussianBlur stdDeviation="0.901293"/>
<feColorMatrix type="matrix" values="0 0 0 0 0.709804 0 0 0 0 0.717647 0 0 0 0 0.764706 0 0 0 0.2 0"/>
<feBlend mode="normal" in2="effect2_dropShadow_206_2872" result="effect3_dropShadow_206_2872"/>
<feColorMatrix in="SourceAlpha" type="matrix" values="0 0 0 0 0 0 0 0 0 0 0 0 0 0 0 0 0 0 127 0" result="hardAlpha"/>
<feOffset dx="-0.901293" dy="0.901293"/>
<feGaussianBlur stdDeviation="0.901293"/>
<feColorMatrix type="matrix" values="0 0 0 0 0.709804 0 0 0 0 0.717647 0 0 0 0 0.764706 0 0 0 0.2 0"/>
<feBlend mode="normal" in2="effect3_dropShadow_206_2872" result="effect4_dropShadow_206_2872"/>
<feBlend mode="normal" in="SourceGraphic" in2="effect4_dropShadow_206_2872" result="shape"/>
<feColorMatrix in="SourceAlpha" type="matrix" values="0 0 0 0 0 0 0 0 0 0 0 0 0 0 0 0 0 0 127 0" result="hardAlpha"/>
<feOffset dx="-0.901293" dy="-0.901293"/>
<feGaussianBlur stdDeviation="0.901293"/>
<feComposite in2="hardAlpha" operator="arithmetic" k2="-1" k3="1"/>
<feColorMatrix type="matrix" values="0 0 0 0 0.709804 0 0 0 0 0.717647 0 0 0 0 0.764706 0 0 0 0.5 0"/>
<feBlend mode="normal" in2="shape" result="effect5_innerShadow_206_2872"/>
<feColorMatrix in="SourceAlpha" type="matrix" values="0 0 0 0 0 0 0 0 0 0 0 0 0 0 0 0 0 0 127 0" result="hardAlpha"/>
<feOffset dx="0.901293" dy="0.901293"/>
<feGaussianBlur stdDeviation="0.901293"/>
<feComposite in2="hardAlpha" operator="arithmetic" k2="-1" k3="1"/>
<feColorMatrix type="matrix" values="0 0 0 0 1 0 0 0 0 1 0 0 0 0 1 0 0 0 0.3 0"/>
<feBlend mode="normal" in2="effect5_innerShadow_206_2872" result="effect6_innerShadow_206_2872"/>
</filter>
<linearGradient id="paint0_linear_206_2872" x1="27" y1="23" x2="119.74" y2="115.74" gradientUnits="userSpaceOnUse">
<stop/>
<stop offset="1" stop-color="#2E2E2E"/>
</linearGradient>
</defs>
</svg>
